<svg xmlns="http://www.w3.org/2000/svg" viewBox="0 0 300 400" width="250" height="420">
  <!-- Book cover background -->
  <rect x="0" y="0" width="300" height="400" fill="#fff" stroke="#558200" stroke-width="2"/>

  <!-- Book spine shadow -->
  <rect x="0" y="0" width="20" height="400" fill="#558200"/>

  <!-- Book title area -->
  <rect x="40" y="60" width="220" height="80" fill="#e2e8f0" rx="4"/>

  <!-- Book icon -->
  <g transform="translate(150, 200)">
    <!-- Open book pages -->
    <path d="M-40 -20 L-40 40 L-5 35 L-5 -15 Z" fill="#f7fafc" stroke="#cbd5e0" stroke-width="1"/>
    <path d="M5 -15 L5 35 L40 40 L40 -20 Z" fill="#f7fafc" stroke="#cbd5e0" stroke-width="1"/>
    <!-- Book binding -->
    <rect x="-5" y="-20" width="10" height="60" fill="#4a5568"/>
    <!-- Page lines -->
    <line x1="-35" y1="-10" x2="-10" y2="-12" stroke="#cbd5e0" stroke-width="1"/>
    <line x1="-35" y1="-2" x2="-10" y2="-4" stroke="#cbd5e0" stroke-width="1"/>
    <line x1="-35" y1="6" x2="-10" y2="4" stroke="#cbd5e0" stroke-width="1"/>
    <line x1="10" y1="-4" x2="35" y2="-2" stroke="#cbd5e0" stroke-width="1"/>
    <line x1="10" y1="4" x2="35" y2="6" stroke="#cbd5e0" stroke-width="1"/>
    <line x1="10" y1="12" x2="35" y2="14" stroke="#cbd5e0" stroke-width="1"/>
  </g>

  <!-- Placeholder text -->
  <text x="150" y="100" text-anchor="middle" fill="#558200" font-family="Arial, sans-serif" font-size="16" font-weight="bold">ILV M&#233;xico</text>

  <!-- Author placeholder -->
  <text x="150" y="320" text-anchor="middle" fill="#4a5568" font-family="Arial, sans-serif" font-size="14">Este libro no cuenta con portada</text>

  <!-- Publisher area -->
  <rect x="50" y="350" width="200" height="25" fill="#558200" rx="2"/>
  <text x="150" y="367" text-anchor="middle" fill="#4a5568" font-family="Arial, sans-serif" font-size="10"></text>
</svg>
